<mxfile host="app.diagrams.net" modified="2023-10-18T14:44:02.719Z" agent="Mozilla/5.0 (Windows NT 10.0; Win64; x64) AppleWebKit/537.36 (KHTML, like Gecko) Chrome/118.0.0.0 Safari/537.36 Edg/118.0.2088.46" etag="iFhsGI9VTX3TiM0WillO" version="22.0.4" type="github">
  <diagram name="Page-1" id="UHQWrlpYc38SsrgRiunL">
    <mxGraphModel dx="749" dy="429" grid="1" gridSize="10" guides="1" tooltips="1" connect="1" arrows="1" fold="1" page="1" pageScale="1" pageWidth="827" pageHeight="1169" math="0" shadow="0">
      <root>
        <mxCell id="0" />
        <mxCell id="1" parent="0" />
        <mxCell id="SzN7kkUuUyK608JB7fnL-1" value="Gateway" style="ellipse;shape=cloud;whiteSpace=wrap;html=1;" vertex="1" parent="1">
          <mxGeometry x="640" y="400" width="90" height="70" as="geometry" />
        </mxCell>
        <mxCell id="SzN7kkUuUyK608JB7fnL-5" value="" style="group" vertex="1" connectable="0" parent="1">
          <mxGeometry x="340" y="420" width="108.79999999999995" height="100" as="geometry" />
        </mxCell>
        <mxCell id="SzN7kkUuUyK608JB7fnL-2" value="" style="image;points=[];aspect=fixed;html=1;align=center;shadow=0;dashed=0;image=img/lib/allied_telesis/computer_and_terminals/Personal_Computer_with_Server.svg;" vertex="1" parent="SzN7kkUuUyK608JB7fnL-5">
          <mxGeometry x="20" width="62.400000000000006" height="62.400000000000006" as="geometry" />
        </mxCell>
        <mxCell id="SzN7kkUuUyK608JB7fnL-3" value="Administrateur" style="whiteSpace=wrap;html=1;verticalAlign=top;labelBackgroundColor=default;shadow=0;dashed=0;" vertex="1" parent="SzN7kkUuUyK608JB7fnL-5">
          <mxGeometry y="70" width="108.8" height="30" as="geometry" />
        </mxCell>
        <mxCell id="SzN7kkUuUyK608JB7fnL-4" value="" style="edgeStyle=orthogonalEdgeStyle;rounded=0;orthogonalLoop=1;jettySize=auto;html=1;endArrow=none;endFill=0;" edge="1" parent="SzN7kkUuUyK608JB7fnL-5" source="SzN7kkUuUyK608JB7fnL-2" target="SzN7kkUuUyK608JB7fnL-3">
          <mxGeometry relative="1" as="geometry">
            <Array as="points">
              <mxPoint x="60" y="70" />
              <mxPoint x="60" y="70" />
            </Array>
          </mxGeometry>
        </mxCell>
        <mxCell id="SzN7kkUuUyK608JB7fnL-6" value="" style="image;points=[];aspect=fixed;html=1;align=center;shadow=0;dashed=0;image=img/lib/allied_telesis/security/Router_UTM.svg;" vertex="1" parent="1">
          <mxGeometry x="480" y="420" width="55.800000000000004" height="39.6" as="geometry" />
        </mxCell>
        <mxCell id="SzN7kkUuUyK608JB7fnL-7" value="" style="image;points=[];aspect=fixed;html=1;align=center;shadow=0;dashed=0;image=img/lib/allied_telesis/security/Router_VPN.svg;" vertex="1" parent="1">
          <mxGeometry x="560" y="420" width="55.800000000000004" height="39.6" as="geometry" />
        </mxCell>
      </root>
    </mxGraphModel>
  </diagram>
</mxfile>
